<svg id="Layer_1" data-name="Layer 1" xmlns="http://www.w3.org/2000/svg" viewBox="0 0 476.22 109"><defs><style>.cls-1{fill:#1a1a1a;}.cls-2{fill:#036;}</style></defs><path class="cls-1" d="M433.91,395.19v-9.67a18.35,18.35,0,0,0,4,2.64,32.34,32.34,0,0,0,4.88,2,39.73,39.73,0,0,0,5.15,1.24,28,28,0,0,0,4.79.44q7.56,0,11.3-2.81a10.51,10.51,0,0,0,2.49-13,14.14,14.14,0,0,0-3.44-3.83,34.33,34.33,0,0,0-5.2-3.32c-2-1.06-4.16-2.17-6.47-3.35s-4.72-2.49-6.84-3.76a29.27,29.27,0,0,1-5.51-4.2,17.14,17.14,0,0,1-3.69-5.2,17.73,17.73,0,0,1,.76-15.13,17.89,17.89,0,0,1,5.51-5.84,24.86,24.86,0,0,1,7.79-3.41,35.56,35.56,0,0,1,8.91-1.13q10.35,0,15.09,2.49v9.23q-6.2-4.29-15.92-4.3a25.79,25.79,0,0,0-5.37.57,15,15,0,0,0-4.78,1.83,10.49,10.49,0,0,0-3.42,3.27,8.66,8.66,0,0,0-1.32,4.88,10,10,0,0,0,1,4.64,11.38,11.38,0,0,0,2.95,3.56,29.2,29.2,0,0,0,4.77,3.13c1.87,1,4,2.12,6.47,3.32s4.88,2.54,7.12,3.91a32.06,32.06,0,0,1,5.91,4.54,20.27,20.27,0,0,1,4,5.51,15.56,15.56,0,0,1,1.49,6.94,17.57,17.57,0,0,1-2,8.76,16.64,16.64,0,0,1-5.47,5.84,23.64,23.64,0,0,1-7.93,3.24,43.23,43.23,0,0,1-9.47,1,38.2,38.2,0,0,1-4.1-.27q-2.44-.27-5-.78a42.64,42.64,0,0,1-4.81-1.27A15,15,0,0,1,433.91,395.19Z" transform="translate(-432 -305)"/><path class="cls-1" d="M529.66,398h-8v-7.91h-.19q-5,9.09-15.43,9.09-17.88,0-17.87-21.29V348h8v28.62q0,15.81,12.1,15.82a12.27,12.27,0,0,0,9.65-4.32c2.52-2.89,3.78-6.65,3.78-11.31V348h8Z" transform="translate(-432 -305)"/><path class="cls-1" d="M554,390.8h-.2V398h-8V324h8v32.81h.2q5.9-10,17.28-10,9.62,0,15.06,6.72t5.45,18q0,12.54-6.11,20.09T569,399.2A16.44,16.44,0,0,1,554,390.8Zm-.2-20.17v7a14.87,14.87,0,0,0,4,10.53,14.37,14.37,0,0,0,21.63-1.25q4.13-5.56,4.13-15.48c0-5.56-1.29-9.93-3.86-13.08a12.77,12.77,0,0,0-10.45-4.74,14.18,14.18,0,0,0-11.23,4.86A17.85,17.85,0,0,0,553.83,370.63Z" transform="translate(-432 -305)"/><path class="cls-1" d="M647.09,335.43H626.88V398h-8.21V335.43H598.51V328h48.58Z" transform="translate(-432 -305)"/><path class="cls-1" d="M674.39,356.13a9.77,9.77,0,0,0-6.06-1.61q-5.13,0-8.57,4.83t-3.44,13.19V398h-8V348h8v10.31h.2a17.4,17.4,0,0,1,5.22-8.23,11.9,11.9,0,0,1,7.86-3,13,13,0,0,1,4.79.69Z" transform="translate(-432 -305)"/><path class="cls-1" d="M718.87,398h-8v-7.81h-.19q-5.24,9-15.38,9c-5,0-8.88-1.32-11.7-4a13.7,13.7,0,0,1-4.22-10.5q0-14,16.5-16.31l15-2.1q0-12.74-10.3-12.74a24.63,24.63,0,0,0-16.31,6.15v-8.2a31,31,0,0,1,17-4.69q17.63,0,17.63,18.65Zm-8-25.29-12.06,1.66q-5.56.78-8.4,2.76c-1.89,1.32-2.83,3.65-2.83,7a7.64,7.64,0,0,0,2.61,6,10.12,10.12,0,0,0,7,2.32,12.84,12.84,0,0,0,9.84-4.18,14.89,14.89,0,0,0,3.88-10.57Z" transform="translate(-432 -305)"/><path class="cls-1" d="M768,395.73a26,26,0,0,1-13.67,3.47q-10.7,0-17.26-7t-6.57-18q0-12.36,7.08-19.85t18.9-7.5a26.44,26.44,0,0,1,11.62,2.44v8.21a20.34,20.34,0,0,0-11.92-3.91,16.1,16.1,0,0,0-12.57,5.49q-4.9,5.51-4.91,14.43t4.62,13.87q4.6,5.07,12.37,5.08A20.05,20.05,0,0,0,768,388.11Z" transform="translate(-432 -305)"/><path class="cls-1" d="M821.65,398H810.42l-22.07-24h-.19v24h-8V324h8v46.92h.19l21-22.9h10.5l-23.2,24.12Z" transform="translate(-432 -305)"/><path class="cls-1" d="M870,375h-35.3q.19,8.34,4.49,12.89t11.82,4.54a24.56,24.56,0,0,0,15.52-5.57v7.52q-6.59,4.79-17.43,4.79-10.59,0-16.65-6.82t-6-19.16q0-11.67,6.61-19a21.21,21.21,0,0,1,16.43-7.35q9.82,0,15.19,6.35T870,370.83Zm-8.2-6.79q-.06-6.93-3.35-10.79a11.39,11.39,0,0,0-9.15-3.86,12.94,12.94,0,0,0-9.62,4.05,18.33,18.33,0,0,0-4.88,10.6Z" transform="translate(-432 -305)"/><path class="cls-1" d="M908.22,356.13a9.73,9.73,0,0,0-6.05-1.61q-5.13,0-8.57,4.83t-3.44,13.19V398h-8V348h8v10.31h.19a17.41,17.41,0,0,1,5.23-8.23,11.9,11.9,0,0,1,7.86-3,12.92,12.92,0,0,1,4.78.69Z" transform="translate(-432 -305)"/><rect class="cls-2" width="153" height="9"/><rect class="cls-2" x="162" y="100" width="314" height="9"/></svg>